<?xml version="1.0" standalone="no"?>
<!DOCTYPE svg PUBLIC "-//W3C//DTD SVG 20010904//EN"
 "http://www.w3.org/TR/2001/REC-SVG-20010904/DTD/svg10.dtd">
<svg version="1.0" xmlns="http://www.w3.org/2000/svg"
 width="50.000000pt" height="45.000000pt" viewBox="0 0 980.000000 820.000000"
 preserveAspectRatio="xMidYMid meet">

<g transform="translate(0.000000,820.000000) scale(0.100000,-0.100000)"
fill="#FA0F1B" stroke="none">
<path d="M1543 8186 c-268 -51 -506 -190 -901 -524 -348 -294 -547 -674 -618
-1177 -50 -354 5 -1430 112 -2170 108 -752 299 -1501 571 -2235 162 -437 410
-830 780 -1235 317 -346 725 -681 980 -803 64 -30 89 -37 138 -36 59 0 83 6
361 83 224 62 320 75 514 68 91 -4 195 -11 231 -17 122 -18 602 -69 769 -81
258 -20 767 -17 924 4 617 83 1143 333 1632 775 473 427 914 1104 1168 1795
l51 138 105 48 c291 133 569 329 805 565 339 340 530 708 612 1171 25 142 25
552 0 720 -64 426 -205 783 -422 1060 -90 116 -257 272 -371 348 -298 198
-620 287 -1041 287 -436 0 -842 -79 -1181 -229 -457 -202 -803 -557 -951 -974
-58 -164 -75 -271 -75 -472 -1 -203 12 -290 69 -459 19 -56 33 -101 32 -102
-1 -1 -47 6 -102 14 -155 23 -638 22 -780 -1 -575 -93 -990 -356 -1298 -822
-140 -212 -283 -566 -341 -845 -15 -69 -29 -136 -32 -149 -4 -20 -24 17 -90
165 -158 355 -283 583 -438 800 -156 217 -288 363 -597 659 -344 331 -595 744
-833 1376 -36 97 -66 189 -66 203 0 49 27 83 85 110 30 14 80 38 111 52 30 14
73 43 95 64 37 35 39 36 39 13 0 -53 111 -135 223 -163 67 -17 268 -8 336 15
69 24 125 75 119 109 -4 22 -1 24 40 30 54 7 154 54 205 96 46 39 77 97 77
145 0 35 0 35 43 35 58 0 139 41 178 91 41 52 69 128 69 188 0 46 2 50 29 56
64 14 91 71 91 192 0 217 -80 348 -319 523 -57 41 -176 131 -265 200 -247 191
-330 241 -468 280 -95 28 -302 36 -405 16z"/>
</g>
</svg>
